<svg height="512" viewBox="0 0 64 64" width="512" xmlns="http://www.w3.org/2000/svg"><g id="_05-E-learning" data-name="05-E-learning"><path d="m6 7h52a2 2 0 0 1 2 2v38a0 0 0 0 1 0 0h-56a0 0 0 0 1 0 0v-38a2 2 0 0 1 2-2z" fill="#fbfbfb"/><path d="m60 47 3 6h-23l-1-3h-14l-1 3h-23l3-6h6 1 22 24z" fill="#d6e0eb"/><path d="m40 53h23a4 4 0 0 1 -4 4h-54a4 4 0 0 1 -4-4z" fill="#5c6979"/><path d="m61 55h-51a2 2 0 0 1 -2-2h-7a4 4 0 0 0 4 4h54a4 4 0 0 0 4-4 2 2 0 0 1 -2 2z" fill="#393d48"/><path d="m10.1 48.257.5-1.257h-6.6l-3 6h23l.667-2h-12.713a2 2 0 0 1 -1.854-2.743z" fill="#c1cfe8"/><path d="m39.333 51 .667 2h23l-1-2z" fill="#c1cfe8"/><path d="m58 7h-52a2 2 0 0 0 -2 2v38h56v-38a2 2 0 0 0 -2-2zm1 39h-54v-37a1 1 0 0 1 1-1h52a1 1 0 0 1 1 1z" fill="#5c6979"/><path d="m39 50 1 3h-16l1-3z" fill="#5c6979"/><path d="m27 50h-2l-1 3h16l-.334-1c-11.678-.039-12.666-2-12.666-2z" fill="#393d48"/><path d="m43 31v-6h-6v6zm17-22v38h-28v-40h26a2.006 2.006 0 0 1 2 2z" fill="#fbb253"/><path d="m23 29-8 5v-10z" fill="#fbb253"/><path d="m32 7v40h-28v-38a2.006 2.006 0 0 1 2-2zm-17 27 8-5-8-5z" fill="#555fa3"/><g fill="#353f70"><path d="m46 24h10v2h-10z"/><path d="m46 28h10v2h-10z"/><path d="m36 34h20v2h-20z"/><path d="m36 38h20v2h-20z"/><path d="m36 42h20v2h-20z"/></g><path d="m43 24h-6a1 1 0 0 0 -1 1v6a1 1 0 0 0 1 1h6a1 1 0 0 0 1-1v-6a1 1 0 0 0 -1-1zm0 7h-6v-6h6z" fill="#df8958"/><path d="m37 25h6v6h-6z" fill="#555fa3"/><path d="m58 7h-52a2 2 0 0 0 -2 2v38h56v-38a2 2 0 0 0 -2-2zm1 39h-54v-37a1 1 0 0 1 1-1h52a1 1 0 0 1 1 1z" fill="#5c6979"/><path d="m62.96 17.76a1.038 1.038 0 0 1 -1.12 1.24h-1.68a1.038 1.038 0 0 1 -1.12-1.24l1.96-4.76z" fill="#fbb253"/><path d="m54 9.33v6.67s-2 3-11 3-11-3-11-3v-6.67l11 3.67z" fill="#393d48"/><path d="m54 9.33-11 3.67-11-3.67-7-2.33 18-6 18 6z" fill="#555b6b"/><path d="m61.5 14.214v-7.214h-1v7.214l.5-1.214z" fill="#393d48"/><path d="m39 16.808a2.192 2.192 0 0 1 2.724-2.127l1.276.319 11-4.231v-1.439l-11 3.67-11-3.67v6.67s1.654 2.446 8.622 2.916a2.187 2.187 0 0 1 -1.622-2.108z" fill="#2b2b37"/><path d="m40.243 1.919-15.243 5.081 7 2.33 11 3.67 2-.667-3.1-1.033a5.423 5.423 0 0 1 -1.657-9.381z" fill="#393d48"/><path d="m60.155 15.052-1.115 2.708a1.038 1.038 0 0 0 1.12 1.24h1.68a1.057 1.057 0 0 0 1.141-1.11 3.622 3.622 0 0 1 -2.826-2.838z" fill="#df8958"/><path d="m58.16 21h.84v-6l-1.96 4.76a1.038 1.038 0 0 0 1.12 1.24z" fill="#df8958"/><path d="m59.04 17.76.548-1.331-.588-1.429v6h.84a1.4 1.4 0 0 0 .16-.016v-2a1.01 1.01 0 0 1 -.96-1.224z" fill="#2b2b37"/><path d="m32 16v3.437c1.606.771 4.374 1.563 9 1.563 9 0 11-3 11-3v-.563c-1.606.771-4.374 1.563-9 1.563-9 0-11-3-11-3z" fill="#df8958"/><path d="m30 11.33v6.67a5.2 5.2 0 0 0 2 1.437v-10.107l-4-1.33h-2l-3 1z" fill="#38406f"/><path d="m27.001 7.666-1.001.334h2.004z" fill="#2b2b37"/></g></svg>